<?xml version="1.0" encoding="utf-8"?>
<!-- Generator: Adobe Illustrator 22.1.0, SVG Export Plug-In . SVG Version: 6.00 Build 0)  -->
<svg version="1.1" id="Layer_1" xmlns="http://www.w3.org/2000/svg" xmlns:xlink="http://www.w3.org/1999/xlink" x="0px" y="0px"
	 viewBox="0 0 16 16" style="enable-background:new 0 0 16 16;" xml:space="preserve">
<style type="text/css">
	.st0{fill:#E3FFDE;}
	.st1{fill:none;stroke:#609DDE;stroke-width:0.5;stroke-miterlimit:10;}
	.st2{fill:#609DDE;}
	.st3{fill:#F1662A;}
	.st4{fill:#FFFFFF;}
</style>
<g>
	<path class="st0" d="M10.5,15.7H5c-0.9,0-1.6-0.7-1.6-1.6V2c0-0.9,0.7-1.6,1.6-1.6h5.5c0.9,0,1.6,0.7,1.6,1.6v12.1
		C12.1,15,11.4,15.7,10.5,15.7z"/>
	<path class="st1" d="M10.3,15.7H4.8c-0.9,0-1.6-0.7-1.6-1.6V2c0-0.9,0.7-1.6,1.6-1.6h5.5c0.9,0,1.6,0.7,1.6,1.6v12.1
		C11.9,15,11.2,15.7,10.3,15.7z"/>
</g>
<circle class="st2" cx="7.6" cy="13.6" r="1.2"/>
<polygon class="st3" points="5,10.4 4.4,4.1 10.7,4.1 10.1,10.4 7.6,11.1 "/>
<polygon class="st4" points="7.6,6.9 6.5,6.9 6.4,6.1 7.6,6.1 7.6,5.3 7.6,5.3 5.6,5.3 5.6,5.6 5.8,7.7 7.6,7.7 "/>
<polygon class="st4" points="7.6,8.9 7.6,8.9 6.7,8.7 6.6,8.1 6.2,8.1 5.8,8.1 6,9.3 7.6,9.7 7.6,9.7 "/>
<polygon class="st4" points="7.6,6.9 7.6,7.7 8.5,7.7 8.4,8.7 7.6,8.9 7.6,9.7 9.2,9.3 9.2,9.1 9.3,7.1 9.3,6.9 9.2,6.9 "/>
<polygon class="st4" points="7.6,5.3 7.6,5.8 7.6,6.1 7.6,6.1 9.4,6.1 9.4,6.1 9.4,6.1 9.4,5.9 9.5,5.6 9.5,5.3 "/>
</svg>
